<svg xmlns="http://www.w3.org/2000/svg" width="300" height="480" viewBox="0 0 300 480" role="img" aria-labelledby="title desc">
<title id="title">18 犬 · Dog</title><desc id="desc">问象原创雷诺曼几何线描牌图，MIT许可。传统符号编号参考发行者牌组指南，图形不复制其插图。</desc>
<rect x="3" y="3" width="294" height="474" rx="24" fill="#f9f4e8" stroke="#517d79" stroke-width="3"/>
<rect x="14" y="14" width="272" height="452" rx="18" fill="none" stroke="#c5ad79" stroke-width="1"/>
<text x="34" y="56" fill="#315f5b" font-family="sans-serif" font-size="24" font-weight="600">18</text>
<path d="M246 32l9 9-9 9-9-9z" fill="none" stroke="#a58852" stroke-width="1.6"/>
<circle cx="150" cy="210" r="111" fill="#e5eee4"/>
<g transform="translate(50 108)" fill="none" stroke="#315f5b" stroke-width="4" stroke-linecap="round" stroke-linejoin="round"><path d="M61 61Q38 49 31 68l14 54 19-21m74-40q24-13 32 5l-15 56-22-25M64 60q35-28 70 0v79q-34 37-70 0z"/><ellipse cx="99" cy="119" rx="23" ry="17"/><path d="M88 111h23l-11 11zM100 123v16m-12 0q12 12 25 0M69 161h62"/><circle cx="82" cy="88" r="3"/><circle cx="119" cy="88" r="3"/></g>
<path d="M90 347h120" stroke="#c5ad79" stroke-width="1.2"/>
<text x="150" y="390" text-anchor="middle" fill="#284f4c" font-family="sans-serif" font-size="30" font-weight="600">犬</text>
<text x="150" y="422" text-anchor="middle" fill="#6c8076" font-family="sans-serif" font-size="17" letter-spacing="1">DOG</text>
<text x="150" y="454" text-anchor="middle" fill="#a58b5b" font-family="sans-serif" font-size="10" letter-spacing="3">问象 · LENORMAND</text>
</svg>